<svg xmlns="http://www.w3.org/2000/svg" viewBox="0 0 480 400" fill="none" aria-hidden="true">
  <defs>
    <linearGradient id="layer" x1="0" y1="0" x2="480" y2="0">
      <stop offset="0%" stop-color="#2d4a40"/>
      <stop offset="50%" stop-color="#c98547"/>
      <stop offset="100%" stop-color="#2d4a40"/>
    </linearGradient>
    <linearGradient id="bg" x1="0" y1="0" x2="0" y2="400">
      <stop offset="0%" stop-color="#0a1210"/>
      <stop offset="100%" stop-color="#060a08"/>
    </linearGradient>
    <filter id="shadow"><feDropShadow dx="0" dy="8" stdDeviation="12" flood-color="#000" flood-opacity="0.45"/></filter>
  </defs>
  <rect width="480" height="400" rx="16" fill="url(#bg)"/>
  <rect x="1" y="1" width="478" height="398" rx="15" stroke="#d4924f" stroke-opacity="0.12"/>
  <text x="24" y="36" fill="#d4924f" font-family="system-ui,sans-serif" font-size="11" font-weight="700" letter-spacing="0.14em">TARGET ARCHITECTURE</text>

  <g transform="translate(60,70)" filter="url(#shadow)">
    <path d="M180 0 L360 60 L180 120 L0 60 Z" fill="#101a16" stroke="url(#layer)" stroke-opacity="0.55"/>
    <path d="M180 0 L360 60 L360 55 L180 5 Z" fill="#1a2822" opacity="0.6"/>
    <text x="180" y="68" text-anchor="middle" fill="#eef1ee" font-size="12" font-weight="700">Experience layer</text>

    <path d="M180 140 L360 200 L180 260 L0 200 Z" fill="#0c1612" stroke="url(#layer)" stroke-opacity="0.65"/>
    <path d="M180 140 L360 200 L360 195 L180 135 Z" fill="#142018" opacity="0.5"/>
    <text x="180" y="208" text-anchor="middle" fill="#eef1ee" font-size="12" font-weight="700">Platform &amp; APIs</text>

    <path d="M180 280 L360 340 L180 400 L0 340 Z" fill="#09110d" stroke="#d4924f" stroke-opacity="0.75"/>
    <path d="M180 280 L360 340 L360 335 L180 275 Z" fill="#132019" opacity="0.5"/>
    <text x="180" y="348" text-anchor="middle" fill="#d4924f" font-size="12" font-weight="700">Data &amp; AI core</text>
  </g>

  <line x1="400" y1="100" x2="440" y2="100" stroke="#d4924f" stroke-opacity="0.45"/>
  <text x="400" y="94" fill="#7a8480" font-size="9">React · APIs</text>
  <line x1="400" y1="230" x2="440" y2="230" stroke="#d4924f" stroke-opacity="0.45"/>
  <text x="400" y="224" fill="#7a8480" font-size="9">K8s · IaC</text>
  <line x1="400" y1="360" x2="440" y2="360" stroke="#d4924f" stroke-opacity="0.45"/>
  <text x="400" y="354" fill="#7a8480" font-size="9">Lakehouse</text>
</svg>
