<svg xmlns="http://www.w3.org/2000/svg" viewBox="0 0 480 420" fill="none" aria-hidden="true">
  <defs>
    <linearGradient id="hg1" x1="0%" y1="0%" x2="100%" y2="100%">
      <stop offset="0%" stop-color="#b87333" stop-opacity="0.9"/>
      <stop offset="100%" stop-color="#3d5a4f" stop-opacity="0.6"/>
    </linearGradient>
    <linearGradient id="hg2" x1="0%" y1="100%" x2="100%" y2="0%">
      <stop offset="0%" stop-color="#0f231c"/>
      <stop offset="100%" stop-color="#1a342b"/>
    </linearGradient>
    <radialGradient id="hglow" cx="50%" cy="40%" r="50%">
      <stop offset="0%" stop-color="#b87333" stop-opacity="0.35"/>
      <stop offset="100%" stop-color="#b87333" stop-opacity="0"/>
    </radialGradient>
    <filter id="hblur" x="-20%" y="-20%" width="140%" height="140%">
      <feGaussianBlur stdDeviation="24"/>
    </filter>
  </defs>
  <ellipse cx="240" cy="180" rx="160" ry="120" fill="url(#hglow)" filter="url(#hblur)"/>
  <circle cx="240" cy="200" r="88" stroke="url(#hg1)" stroke-width="1" stroke-opacity="0.4" stroke-dasharray="4 6"/>
  <circle cx="240" cy="200" r="130" stroke="url(#hg1)" stroke-width="0.75" stroke-opacity="0.2"/>
  <circle cx="240" cy="200" r="56" fill="url(#hg2)" fill-opacity="0.85"/>
  <circle cx="240" cy="200" r="56" stroke="url(#hg1)" stroke-width="1.5" stroke-opacity="0.5"/>
  <path d="M240 144v112M184 200h112" stroke="#b87333" stroke-opacity="0.25" stroke-width="1"/>
  <circle cx="240" cy="112" r="6" fill="#b87333"/>
  <circle cx="328" cy="200" r="5" fill="#3d5a4f"/>
  <circle cx="152" cy="248" r="5" fill="#b87333" fill-opacity="0.7"/>
  <circle cx="296" cy="288" r="4" fill="#3d5a4f" fill-opacity="0.8"/>
  <rect x="56" y="72" width="128" height="72" rx="8" fill="#0f231c" fill-opacity="0.92" stroke="#b87333" stroke-opacity="0.35"/>
  <text x="72" y="98" fill="#b87333" font-family="system-ui,sans-serif" font-size="9" font-weight="700" letter-spacing="0.12em">DEPLOY FREQ</text>
  <text x="72" y="124" fill="#f4f2ed" font-family="system-ui,sans-serif" font-size="22" font-weight="800">3.8×</text>
  <rect x="72" y="132" width="88" height="4" rx="2" fill="#3d5a4f" fill-opacity="0.5"/>
  <rect x="72" y="132" width="72" height="4" rx="2" fill="#b87333"/>
  <rect x="296" y="56" width="128" height="80" rx="8" fill="#0f231c" fill-opacity="0.88" stroke="#3d5a4f" stroke-opacity="0.45"/>
  <text x="312" y="82" fill="#8a928c" font-family="system-ui,sans-serif" font-size="9" font-weight="700" letter-spacing="0.12em">PIPELINE</text>
  <circle cx="324" cy="108" r="5" fill="#b87333"/><line x1="336" y1="108" x2="356" y2="108" stroke="#3d5a4f" stroke-width="2"/>
  <circle cx="368" cy="108" r="5" fill="#3d5a4f"/><line x1="380" y1="108" x2="400" y2="108" stroke="#3d5a4f" stroke-width="2"/>
  <circle cx="412" cy="108" r="5" fill="#b87333"/>
  <rect x="48" y="280" width="140" height="88" rx="8" fill="#0f231c" fill-opacity="0.9" stroke="#b87333" stroke-opacity="0.25"/>
  <text x="64" y="306" fill="#8a928c" font-family="system-ui,sans-serif" font-size="9" font-weight="700" letter-spacing="0.12em">COMPLIANCE</text>
  <path d="M64 340h108M64 352h80M64 364h96" stroke="#3d5a4f" stroke-width="3" stroke-linecap="round"/>
  <rect x="308" y="300" width="124" height="76" rx="8" fill="#0f231c" fill-opacity="0.85" stroke="#b87333" stroke-opacity="0.3"/>
  <text x="324" y="326" fill="#b87333" font-family="system-ui,sans-serif" font-size="9" font-weight="700" letter-spacing="0.12em">UPTIME</text>
  <text x="324" y="356" fill="#f4f2ed" font-family="system-ui,sans-serif" font-size="20" font-weight="800">99.97%</text>
</svg>
